<?xml version="1.0" encoding="UTF-8" standalone="no"?>
<!DOCTYPE svg PUBLIC "-//W3C//DTD SVG 1.1//EN" "http://www.w3.org/Graphics/SVG/1.1/DTD/svg11.dtd">
<svg width="100%" height="100%" viewBox="0 0 1080 1080" version="1.1" xmlns="http://www.w3.org/2000/svg" xmlns:xlink="http://www.w3.org/1999/xlink" xml:space="preserve" xmlns:serif="http://www.serif.com/" style="fill-rule:evenodd;clip-rule:evenodd;stroke-linejoin:round;stroke-miterlimit:2;">
    <rect x="0" y="0" width="1080" height="1080" style="fill:rgb(11,14,20);"/>
    <g transform="matrix(0.985401,0,0,0.985401,540,540)">
        <g transform="matrix(1,0,0,1,-548,-426)">
            <g transform="matrix(1.401932,0,0,1.401932,164.209362,127.390816)">
                <path d="M265.691,77.683C301.786,76.531 337.131,88.201 365.446,110.623C398.996,136.697 417.961,173.579 423.246,215.296C412.846,225.417 393.206,241.107 381.696,250.032C340.921,281.642 293.606,313.817 247.899,337.712C230.004,347.587 211.841,356.127 193.378,364.862C184.034,359.142 175.224,352.597 167.053,345.297C136.632,317.857 118.442,279.392 116.534,238.467C114.661,197.832 129.006,158.12 156.413,128.064C185.803,96.003 222.492,79.584 265.691,77.683Z" style="fill:rgb(222,227,237);fill-rule:nonzero;"/>
            </g>
            <g transform="matrix(1.401932,0,0,1.401932,164.209362,127.390816)">
                <path d="M534.531,45.627C543.941,52.239 548.101,67.183 547.451,78.142C546.286,99.17 536.266,118.762 525.271,136.274C497.881,179.916 460.786,212.591 423.406,247.017C422.181,256.802 420.496,266.002 417.701,275.462C405.911,314.472 379.231,347.267 343.441,366.752C305.351,387.407 264.206,390.067 223.09,377.852C211.596,382.457 198.288,388.972 186.719,393.907C2.575,472.477 -70.344,400.332 83.507,247.552C88.96,242.157 97.425,234.037 103.238,229.277C103.218,234.717 103.292,239.002 103.652,244.442C71.624,274.952 27.873,319.142 15.023,362.267C11.71,373.382 9.833,386.507 15.704,397.127C20.061,405.012 27.712,409.277 36.156,411.662C93.337,427.817 208.677,373.907 259.851,345.372C343.991,298.457 431.951,235.557 493.256,160.509C509.536,140.584 526.501,117.094 533.506,91.986C536.831,80.073 537.066,69.075 530.921,58.118C533.046,53.603 533.656,50.497 534.531,45.627Z" style="fill:rgb(222,227,237);fill-rule:nonzero;"/>
            </g>
            <g transform="matrix(1.401932,0,0,1.401932,164.209362,127.390816)">
                <path d="M477.956,0.075C482.581,-0.071 487.601,0.039 492.256,0.052C491.681,8.938 491.336,17.795 490.721,26.711C498.146,22.046 505.896,16.717 513.251,11.856L520.361,24.088C514.121,27.846 503.116,33.12 496.356,36.763C504.276,41.274 512.471,45.097 520.426,49.578C518.101,53.817 515.791,57.575 513.256,61.677C505.916,56.794 498.381,51.617 490.796,47.181L492.186,73.8C490.141,74.244 480.461,73.991 477.891,73.963C478.441,65.004 478.901,56.041 479.266,47.073C472.101,51.369 463.791,57.066 456.791,61.723C454.201,57.707 451.916,53.54 449.571,49.376C457.606,45.282 465.611,41.137 473.586,36.941C465.781,32.5 457.586,28.37 449.596,24.232L456.636,12.101C463.521,16.009 472.336,22.281 479.226,26.777L477.956,0.075Z" style="fill:rgb(222,227,237);fill-rule:nonzero;"/>
            </g>
            <g transform="matrix(1.401932,0,0,1.401932,164.209362,127.390816)">
                <path d="M433.226,36.593C434.541,36.379 433.946,36.225 435.076,36.871C435.721,39.766 435.666,44.518 436.196,48.163C407.596,53.471 369.626,69.325 343.171,81.082L335.411,77.584C333.376,76.615 330.471,75.505 328.326,74.609C364.176,59.385 394.241,45.258 433.226,36.593Z" style="fill:rgb(222,227,237);fill-rule:nonzero;"/>
            </g>
        </g>
    </g>
</svg>
